<?xml version="1.0" encoding="UTF-8"?>
<!DOCTYPE svg PUBLIC "-//W3C//DTD SVG 1.1//EN" "http://www.w3.org/Graphics/SVG/1.1/DTD/svg11.dtd">
<!-- Creator: CorelDRAW 2020 (64-Bit) -->
<svg xmlns="http://www.w3.org/2000/svg" xml:space="preserve" width="8.5088mm" height="8.5088mm" version="1.1" style="shape-rendering:geometricPrecision; text-rendering:geometricPrecision; image-rendering:optimizeQuality; fill-rule:evenodd; clip-rule:evenodd"
viewBox="0 0 57.06 57.06"
 xmlns:xlink="http://www.w3.org/1999/xlink"
 xmlns:xodm="http://www.corel.com/coreldraw/odm/2003">
 <defs>
  <style type="text/css">
   <![CDATA[
    .fil0 {fill:none}
    .fil1 {fill:#FEFEFE;fill-rule:nonzero}
   ]]>
  </style>
 </defs>
 <g id="Layer_x0020_1">
  <metadata id="CorelCorpID_0Corel-Layer"/>
  <g id="_1770705740320">
   <circle class="fil0" cx="28.53" cy="28.53" r="28.53"/>
   <g>
    <path class="fil1" d="M10.68 35.25c0.83,-2.55 1.63,-5 2.38,-7.34 0.76,-2.35 1.43,-4.52 2.02,-6.52 0.58,-2 1.04,-3.76 1.38,-5.29 0.34,-1.53 0.53,-2.75 0.57,-3.66 0.23,-0.87 0.61,-1.56 1.18,-2.08 0.56,-0.51 1.21,-0.78 1.95,-0.78 0.44,0 0.82,0.1 1.14,0.31 0.31,0.2 0.57,0.46 0.77,0.8 0.19,0.33 0.33,0.7 0.43,1.12 0.09,0.42 0.14,0.84 0.14,1.27 0,0.31 -0.02,0.6 -0.06,0.85 -0.04,0.26 -0.09,0.51 -0.14,0.75 -0.43,1.7 -0.93,3.46 -1.52,5.27 -0.59,1.81 -1.19,3.64 -1.82,5.51 -0.61,1.85 -1.23,3.72 -1.84,5.58 -0.61,1.86 -1.15,3.7 -1.63,5.49l-0.5 1.88c-0.26,0.97 -0.48,1.87 -0.66,2.74 -0.19,0.87 -0.28,1.57 -0.28,2.11 0,0.29 0.06,0.53 0.17,0.71 0.11,0.17 0.32,0.26 0.63,0.26 0.76,0 1.65,-0.12 2.67,-0.37 1.01,-0.25 2.06,-0.56 3.15,-0.92 1.1,-0.36 2.18,-0.76 3.26,-1.19 1.08,-0.44 2.07,-0.84 2.98,-1.23 0.47,-0.21 0.89,-0.38 1.23,-0.53 0.34,-0.14 0.77,-0.32 1.28,-0.54 0.51,-0.21 1.18,-0.49 2.03,-0.84 0.85,-0.35 2.03,-0.84 3.52,-1.48 0.26,-0.09 0.48,-0.17 0.68,-0.23 0.19,-0.07 0.38,-0.1 0.54,-0.1 0.29,0 0.55,0.06 0.77,0.17 0.21,0.11 0.38,0.26 0.49,0.45 0.12,0.18 0.21,0.4 0.26,0.63 0.06,0.25 0.09,0.48 0.09,0.72 0,0.41 -0.03,0.77 -0.09,1.07 -0.07,0.3 -0.13,0.56 -0.21,0.77 -0.23,0.35 -0.51,0.67 -0.86,0.96 -0.35,0.28 -0.72,0.53 -1.11,0.75 -0.39,0.21 -0.77,0.39 -1.14,0.54 -0.37,0.15 -0.68,0.26 -0.92,0.33 -0.29,0.11 -0.69,0.26 -1.17,0.44 -0.49,0.19 -1.02,0.39 -1.6,0.61 -0.58,0.23 -1.16,0.45 -1.77,0.68 -0.61,0.24 -1.18,0.45 -1.72,0.65 -0.54,0.21 -1.01,0.39 -1.43,0.54 -0.42,0.16 -0.71,0.27 -0.87,0.32 -0.79,0.29 -1.68,0.62 -2.65,0.99 -0.97,0.37 -1.94,0.73 -2.9,1.06 -0.96,0.33 -1.87,0.62 -2.73,0.84 -0.86,0.24 -1.57,0.35 -2.15,0.35 -0.7,0 -1.25,-0.06 -1.65,-0.17 -0.4,-0.11 -0.76,-0.26 -1.07,-0.45 -0.31,-0.2 -0.63,-0.44 -0.96,-0.71 -0.32,-0.27 -0.76,-0.58 -1.29,-0.92 -0.48,-0.29 -0.82,-0.7 -1.03,-1.21 -0.2,-0.52 -0.3,-1.08 -0.3,-1.67 0,-0.3 0.03,-0.64 0.07,-1.03 0.05,-0.39 0.11,-0.79 0.18,-1.22 0.08,-0.42 0.16,-0.83 0.26,-1.24 0.09,-0.41 0.19,-0.77 0.3,-1.09l1.55 -4.71z"/>
    <path class="fil1" d="M25.04 13.54c0.07,-0.31 0.16,-0.63 0.27,-0.98 0.11,-0.34 0.25,-0.66 0.42,-0.95 0.18,-0.29 0.41,-0.53 0.69,-0.72 0.28,-0.19 0.64,-0.29 1.07,-0.29 0.42,0 0.78,0.11 1.11,0.34 0.32,0.23 0.61,0.46 0.87,0.7 0.3,0.2 0.6,0.6 0.88,1.22 0.28,0.61 0.57,1.36 0.87,2.26 0.3,0.89 0.63,1.91 0.97,3.04 0.35,1.13 0.73,2.31 1.15,3.55 0.42,1.24 0.89,2.5 1.4,3.79 0.51,1.29 1.1,2.54 1.77,3.77 0.1,0.19 0.23,0.41 0.37,0.66 0.14,0.25 0.28,0.49 0.43,0.72 0.14,0.22 0.28,0.41 0.4,0.57 0.13,0.15 0.22,0.23 0.28,0.23 0.03,0 0.07,-0.09 0.12,-0.26 0.05,-0.18 0.1,-0.39 0.16,-0.64 0.06,-0.25 0.12,-0.5 0.19,-0.76 0.07,-0.25 0.13,-0.47 0.19,-0.63 0.22,-0.54 0.47,-1.16 0.74,-1.86 0.26,-0.7 0.55,-1.55 0.88,-2.54 0.33,-1 0.68,-2.18 1.07,-3.54 0.39,-1.37 0.82,-2.98 1.29,-4.86 0.12,-0.46 0.25,-0.98 0.38,-1.56 0.14,-0.58 0.27,-1.18 0.39,-1.78 0.12,-0.61 0.23,-1.2 0.33,-1.78 0.09,-0.57 0.16,-1.07 0.19,-1.5 0,-0.07 0.01,-0.19 0.02,-0.37 0.01,-0.18 0.03,-0.38 0.06,-0.6 0.03,-0.22 0.07,-0.45 0.11,-0.7 0.05,-0.24 0.11,-0.46 0.19,-0.66 0.08,-0.2 0.18,-0.37 0.29,-0.49 0.12,-0.13 0.26,-0.2 0.43,-0.2 0.16,0 0.37,0.02 0.61,0.07 0.24,0.05 0.46,0.12 0.66,0.21 0.22,0.31 0.42,0.68 0.61,1.1 0.18,0.43 0.27,1.01 0.27,1.74 0,0.46 -0.05,1.01 -0.14,1.65 -0.1,0.64 -0.22,1.33 -0.36,2.07 -0.15,0.74 -0.31,1.49 -0.49,2.27 -0.19,0.78 -0.37,1.52 -0.56,2.24 -0.19,0.71 -0.37,1.36 -0.54,1.96 -0.17,0.59 -0.31,1.08 -0.43,1.48 -0.21,0.68 -0.43,1.38 -0.66,2.11 -0.23,0.72 -0.48,1.48 -0.76,2.28 -0.28,0.79 -0.57,1.63 -0.9,2.52 -0.33,0.89 -0.69,1.84 -1.08,2.86 -0.18,0.46 -0.38,0.92 -0.61,1.37 -0.23,0.46 -0.49,0.87 -0.79,1.25 -0.3,0.37 -0.63,0.67 -0.99,0.9 -0.37,0.23 -0.79,0.34 -1.25,0.34 -0.27,0 -0.55,-0.04 -0.84,-0.11 -0.29,-0.08 -0.53,-0.23 -0.74,-0.47 -0.96,-1.12 -1.82,-2.38 -2.57,-3.8 -0.75,-1.42 -1.43,-2.9 -2.03,-4.45 -0.59,-1.55 -1.12,-3.12 -1.58,-4.7 -0.46,-1.59 -0.87,-3.1 -1.25,-4.55l-0.11 -0.4c-0.04,-0.17 -0.09,-0.33 -0.13,-0.51 -0.04,-0.17 -0.08,-0.33 -0.12,-0.46 -0.04,-0.14 -0.09,-0.26 -0.14,-0.34 -0.05,-0.09 -0.11,-0.13 -0.19,-0.13 -0.07,0 -0.16,0.13 -0.27,0.39 -0.11,0.26 -0.21,0.55 -0.32,0.87 -0.1,0.33 -0.21,0.64 -0.29,0.95 -0.09,0.31 -0.14,0.5 -0.17,0.58 -0.08,0.31 -0.21,0.75 -0.37,1.32 -0.16,0.57 -0.35,1.21 -0.55,1.93 -0.2,0.72 -0.43,1.48 -0.67,2.27 -0.24,0.8 -0.48,1.58 -0.7,2.33 -0.22,0.75 -0.43,1.44 -0.63,2.07 -0.2,0.63 -0.37,1.15 -0.49,1.54 -0.11,0.31 -0.24,0.7 -0.39,1.18 -0.15,0.48 -0.31,0.97 -0.46,1.46 -0.15,0.49 -0.3,0.93 -0.42,1.33 -0.13,0.4 -0.21,0.66 -0.25,0.8 -0.14,0.45 -0.35,0.78 -0.63,1.01 -0.28,0.23 -0.56,0.34 -0.84,0.34 -0.17,0 -0.35,-0.06 -0.52,-0.18 -0.18,-0.13 -0.34,-0.28 -0.47,-0.45 -0.14,-0.18 -0.25,-0.37 -0.34,-0.57 -0.08,-0.21 -0.13,-0.39 -0.13,-0.56 0,-0.09 0.03,-0.24 0.09,-0.45 0.06,-0.21 0.15,-0.56 0.28,-1.05l0.46 -1.81 5.23 -16.92z"/>
   </g>
  </g>
 </g>
</svg>
